{
  "accessors": {
    "accessor_21": {
      "bufferView": "bufferView_1",
      "byteOffset": 0,
      "byteStride": 0,
      "componentType": 5123,
      "count": 2184,
      "type": "SCALAR",
      "min": [
        0
      ],
      "max": [
        493
      ]
    },
    "accessor_23": {
      "bufferView": "bufferView_0",
      "byteOffset": 0,
      "byteStride": 0,
      "componentType": 5123,
      "count": 488,
      "max": [
        65535,
        65535,
        65535
      ],
      "min": [
        0,
        0,
        0
      ],
      "type": "VEC3",
      "extensions": {
        "WEB3D_quantized_attributes": {
          "decodedMin": [
            0.06532939523458481,
            -0.05709099769592285,
            -0.006749999709427357
          ],
          "decodedMax": [
            0.09530919790267944,
            -0.02373429946601391,
            0.002250000135973096
          ],
          "decodeMatrix": [
            4.5746246537109383e-7,
            0,
            0,
            0,
            0,
            5.089905886916753e-7,
            0,
            0,
            0,
            0,
            1.3733119471122992e-7,
            0,
            0.06532939523458481,
            -0.05709099769592285,
            -0.006749999709427357,
            1
          ]
        }
      }
    },
    "accessor_25": {
      "bufferView": "bufferView_0",
      "byteOffset": 8682,
      "byteStride": 0,
      "componentType": 5121,
      "count": 488,
      "max": [
        255,
        255
      ],
      "min": [
        2,
        1
      ],
      "type": "VEC2"
    },
    "accessor_48": {
      "bufferView": "bufferView_1",
      "byteOffset": 4368,
      "byteStride": 0,
      "componentType": 5123,
      "count": 4098,
      "type": "SCALAR",
      "min": [
        0
      ],
      "max": [
        963
      ]
    },
    "accessor_50": {
      "bufferView": "bufferView_0",
      "byteOffset": 2928,
      "byteStride": 0,
      "componentType": 5123,
      "count": 959,
      "max": [
        65535,
        65535,
        65535
      ],
      "min": [
        0,
        0,
        0
      ],
      "type": "VEC3",
      "extensions": {
        "WEB3D_quantized_attributes": {
          "decodedMin": [
            0.05150269716978073,
            -0.20567098259925842,
            -0.006749999709427357
          ],
          "decodedMax": [
            0.10689099133014679,
            -0.06250029802322388,
            0.002250000135973096
          ],
          "decodeMatrix": [
            8.451711934136882e-7,
            0,
            0,
            0,
            0,
            0.0000021846446109107278,
            0,
            0,
            0,
            0,
            1.3733119471122992e-7,
            0,
            0.05150269716978073,
            -0.20567098259925842,
            -0.006749999709427357,
            1
          ]
        }
      }
    },
    "accessor_52": {
      "bufferView": "bufferView_0",
      "byteOffset": 9658,
      "byteStride": 0,
      "componentType": 5121,
      "count": 959,
      "max": [
        255,
        255
      ],
      "min": [
        0,
        0
      ],
      "type": "VEC2"
    }
  },
  "animations": {},
  "asset": {
    "generator": "collada2gltf@",
    "premultipliedAlpha": true,
    "profile": {
      "api": "WebGL",
      "version": "1.0.2"
    },
    "version": "1.0"
  },
  "bufferViews": {
    "bufferView_0": {
      "buffer": "buffer_0",
      "byteLength": 11576,
      "byteOffset": 0,
      "target": 34962
    },
    "bufferView_1": {
      "buffer": "buffer_0",
      "byteLength": 12564,
      "byteOffset": 11576,
      "target": 34963
    }
  },
  "buffers": {
    "buffer_0": {
      "type": "arraybuffer",
      "byteLength": 24140,
      "uri": "data:application/octet-stream;base64,"
    }
  },
  "materials": {
    "lambert1-fx": {
      "name": "lambert1",
      "technique": "technique0",
      "values": {
        "ambient": [
          0,
          0,
          0,
          1
        ],
        "diffuse": [
          0.4000000059604645,
          0.4000000059604645,
          0.4000000059604645,
          1
        ],
        "emission": [
          0,
          0,
          0,
          1
        ],
        "transparency": 0
      }
    }
  },
  "meshes": {
    "rootNode_mesh_0": {
      "name": "rootNode_mesh",
      "primitives": [
        {
          "attributes": {
            "NORMAL": "accessor_52",
            "POSITION": "accessor_50"
          },
          "indices": "accessor_48",
          "material": "lambert1-fx",
          "mode": 4
        },
        {
          "attributes": {
            "NORMAL": "accessor_25",
            "POSITION": "accessor_23"
          },
          "indices": "accessor_21",
          "material": "lambert1-fx",
          "mode": 4
        }
      ]
    }
  },
  "nodes": {
    "rootNode": {
      "children": [],
      "meshes": [
        "rootNode_mesh_0"
      ],
      "matrix": [
        1,
        0,
        0,
        0,
        0,
        1,
        0,
        0,
        0,
        0,
        1,
        0,
        0,
        0,
        0,
        1
      ]
    }
  },
  "programs": {
    "program_0": {
      "attributes": [
        "a_normal",
        "a_position"
      ],
      "fragmentShader": "input0FS",
      "vertexShader": "input0VS"
    }
  },
  "scene": "defaultScene",
  "scenes": {
    "defaultScene": {
      "nodes": [
        "rootNode"
      ]
    }
  },
  "shaders": {
    "input0FS": {
      "type": 35632,
      "uri": "data:text/plain;base64,"
    },
    "input0VS": {
      "type": 35633,
      "uri": "data:text/plain;base64,"
    }
  },
  "skins": {},
  "techniques": {
    "technique0": {
      "attributes": {
        "a_normal": "normal",
        "a_position": "position"
      },
      "parameters": {
        "ambient": {
          "type": 35666
        },
        "diffuse": {
          "type": 35666
        },
        "emission": {
          "type": 35666
        },
        "modelViewMatrix": {
          "semantic": "MODELVIEW",
          "type": 35676
        },
        "normal": {
          "semantic": "NORMAL",
          "type": 35667
        },
        "normalMatrix": {
          "semantic": "MODELVIEWINVERSETRANSPOSE",
          "type": 35675
        },
        "position": {
          "semantic": "POSITION",
          "type": 35665
        },
        "projectionMatrix": {
          "semantic": "PROJECTION",
          "type": 35676
        },
        "transparency": {
          "type": 5126
        }
      },
      "program": "program_0",
      "states": {
        "enable": [
          2929,
          3042
        ],
        "functions": {
          "blendEquationSeparate": [
            32774,
            32774
          ],
          "blendFuncSeparate": [
            1,
            771,
            1,
            771
          ],
          "depthMask": [
            false
          ]
        },
        "disable": []
      },
      "uniforms": {
        "u_ambient": "ambient",
        "u_diffuse": "diffuse",
        "u_emission": "emission",
        "u_modelViewMatrix": "modelViewMatrix",
        "u_normalMatrix": "normalMatrix",
        "u_projectionMatrix": "projectionMatrix",
        "u_transparency": "transparency"
      }
    }
  },
  "extensionsUsed": [
    "WEB3D_quantized_attributes"
  ],
  "cameras": {},
  "images": {},
  "samplers": {},
  "textures": {}
}
